<svg width="33" height="32" viewBox="0 0 33 32" fill="none" xmlns="http://www.w3.org/2000/svg">
<path d="M28.5 17C27.9912 23.16 22.7913 28 16.5 28C13.3174 28 10.2652 26.7357 8.01472 24.4853C5.76428 22.2348 4.5 19.1826 4.5 16C4.5 9.70875 9.34 4.50875 15.5 4" stroke="#F7F7F7" stroke-width="2" stroke-linecap="round" stroke-linejoin="round"/>
<path d="M16.5 9V16H23.5" stroke="#F7F7F7" stroke-width="2" stroke-linecap="round" stroke-linejoin="round"/>
<path d="M20.5 6C21.3284 6 22 5.32843 22 4.5C22 3.67157 21.3284 3 20.5 3C19.6716 3 19 3.67157 19 4.5C19 5.32843 19.6716 6 20.5 6Z" fill="#F7F7F7"/>
<path d="M25 9C25.8284 9 26.5 8.32843 26.5 7.5C26.5 6.67157 25.8284 6 25 6C24.1716 6 23.5 6.67157 23.5 7.5C23.5 8.32843 24.1716 9 25 9Z" fill="#F7F7F7"/>
<path d="M28 13.5C28.8284 13.5 29.5 12.8284 29.5 12C29.5 11.1716 28.8284 10.5 28 10.5C27.1716 10.5 26.5 11.1716 26.5 12C26.5 12.8284 27.1716 13.5 28 13.5Z" fill="#F7F7F7"/>
</svg>
