<svg width="18" height="21" viewBox="0 0 18 21" fill="none" xmlns="http://www.w3.org/2000/svg">
<path d="M17.875 17.25C17.8751 17.7427 17.7673 18.2293 17.5593 18.6758C17.3512 19.1223 17.048 19.5179 16.6708 19.8347C16.2936 20.1516 15.8516 20.382 15.3759 20.5099C14.9002 20.6377 14.4022 20.6598 13.917 20.5748C13.4318 20.4897 12.9711 20.2994 12.5673 20.0173C12.1635 19.7352 11.8263 19.3681 11.5794 18.9418C11.3325 18.5156 11.182 18.0404 11.1383 17.5497C11.0946 17.0591 11.1589 16.5648 11.3266 16.1016L6.35782 12.9094C5.88327 13.3749 5.28182 13.6899 4.62893 13.8149C3.97604 13.9398 3.30079 13.8692 2.68788 13.6119C2.07497 13.3545 1.5517 12.9219 1.18373 12.3683C0.815748 11.8147 0.619446 11.1648 0.619446 10.5C0.619446 9.8353 0.815748 9.18536 1.18373 8.63176C1.5517 8.07816 2.07497 7.64556 2.68788 7.38821C3.30079 7.13087 3.97604 7.06025 4.62893 7.18522C5.28182 7.31019 5.88327 7.62518 6.35782 8.09067L11.3266 4.90317C11.042 4.12134 11.0556 3.26208 11.3645 2.48959C11.6735 1.7171 12.2563 1.08553 13.0015 0.715575C13.7467 0.345617 14.6021 0.263208 15.4043 0.484093C16.2064 0.704978 16.899 1.21367 17.3498 1.91297C17.8006 2.61227 17.9779 3.45314 17.8479 4.27491C17.7178 5.09668 17.2896 5.84173 16.6449 6.36769C16.0003 6.89366 15.1844 7.16366 14.3533 7.1261C13.5221 7.08855 12.734 6.74607 12.1394 6.16411L7.17063 9.3563C7.43917 10.0984 7.43917 10.9111 7.17063 11.6532L12.1394 14.8454C12.6138 14.3811 13.2146 14.067 13.8665 13.9424C14.5185 13.8178 15.1928 13.8882 15.805 14.1449C16.4171 14.4016 16.94 14.833 17.3082 15.3853C17.6764 15.9376 17.8736 16.5863 17.875 17.25Z" fill="#F7F7F7"/>
</svg>
