<svg width="33" height="32" viewBox="0 0 33 32" fill="none" xmlns="http://www.w3.org/2000/svg">
<path d="M4.38464 16.2581C4.80725 19.306 6.23501 22.16 8.49946 24.2069C6.86276 23.6426 5.5476 22.7972 4.54405 21.7545C3.11553 20.2703 2.28517 18.352 2.07883 16.1843C2.83691 16.1165 3.72448 16.1859 4.38464 16.2581Z" stroke="#F7F7F7" stroke-width="1.2"/>
<path d="M10.9038 11.7007C8.97882 16.4463 9.48646 20.7347 11.3052 23.6435C8.42407 21.8322 6.38186 18.3858 6.4176 14.3111L6.41762 14.3111V14.3059C6.41762 12.3538 6.79108 10.9713 7.04292 10.2331C9.17021 10.2201 10.382 11.1786 10.9038 11.7007Z" stroke="#F7F7F7" stroke-width="1.2"/>
<path d="M12.1886 14.8252L12.1896 14.8211C13.1498 10.7803 15.4531 8.25849 16.5377 7.22703C18.6399 8.91256 20.3836 11.9444 21.0111 15.1619C21.6749 18.5662 21.0646 22.0198 18.5057 24.2536C17.7413 24.9185 16.915 25.0898 16.111 24.9101C15.2843 24.7253 14.4278 24.1547 13.6916 23.2365C12.2214 21.4028 11.336 18.3027 12.1886 14.8252Z" stroke="#F7F7F7" stroke-width="1.2"/>
<path d="M25.9732 10.2846C27.7067 14.8517 26.0538 20.6936 21.9144 23.4778C23.9838 19.9927 23.7305 15.5244 22.1937 11.6675C22.757 11.1407 23.9526 10.2898 25.9732 10.2846Z" stroke="#F7F7F7" stroke-width="1.2"/>
<path d="M28.6187 16.2477C29.3175 16.1619 30.197 16.1062 30.9168 16.1766C30.773 17.4758 30.2227 20.017 28.2169 22.0228C27.2145 23.0252 25.9526 23.7738 24.4264 24.2675C26.6638 22.2739 28.1916 19.4331 28.6187 16.2477Z" stroke="#F7F7F7" stroke-width="1.2"/>
</svg>
