<svg width="33" height="32" viewBox="0 0 33 32" fill="none" xmlns="http://www.w3.org/2000/svg">
<path d="M24.5 15C25.6645 14.9991 26.8131 15.2698 27.8547 15.7906C28.8963 16.3114 29.802 17.0679 30.5 18" stroke="#F7F7F7" stroke-width="2" stroke-linecap="round" stroke-linejoin="round"/>
<path d="M2.5 18C3.198 17.0679 4.10375 16.3114 5.1453 15.7906C6.18686 15.2698 7.33551 14.9991 8.5 15" stroke="#F7F7F7" stroke-width="2" stroke-linecap="round" stroke-linejoin="round"/>
<path d="M16.5 23C19.2614 23 21.5 20.7614 21.5 18C21.5 15.2386 19.2614 13 16.5 13C13.7386 13 11.5 15.2386 11.5 18C11.5 20.7614 13.7386 23 16.5 23Z" stroke="#F7F7F7" stroke-width="2" stroke-linecap="round" stroke-linejoin="round"/>
<path d="M9.5 27C10.2179 25.7818 11.2412 24.772 12.4689 24.0705C13.6965 23.369 15.086 23 16.5 23C17.914 23 19.3035 23.369 20.5311 24.0705C21.7588 24.772 22.7821 25.7818 23.5 27" stroke="#F7F7F7" stroke-width="2" stroke-linecap="round" stroke-linejoin="round"/>
<path d="M20.625 10C20.812 9.27571 21.1984 8.61836 21.7402 8.10263C22.2821 7.58689 22.9577 7.23343 23.6903 7.08239C24.423 6.93135 25.1833 6.98877 25.8849 7.24815C26.5866 7.50752 27.2014 7.95845 27.6596 8.54971C28.1179 9.14098 28.4011 9.8489 28.4772 10.5931C28.5533 11.3372 28.4192 12.0878 28.0902 12.7596C27.7611 13.4314 27.2502 13.9974 26.6156 14.3935C25.981 14.7895 25.248 14.9996 24.5 15" stroke="#F7F7F7" stroke-width="2" stroke-linecap="round" stroke-linejoin="round"/>
<path d="M8.50006 15C7.75201 14.9996 7.01906 14.7895 6.38444 14.3935C5.74982 13.9974 5.23897 13.4314 4.9099 12.7596C4.58083 12.0878 4.44673 11.3372 4.52283 10.5931C4.59893 9.8489 4.88218 9.14098 5.34042 8.54971C5.79865 7.95845 6.4135 7.50752 7.11515 7.24815C7.81679 6.98877 8.5771 6.93135 9.30975 7.08239C10.0424 7.23343 10.718 7.58689 11.2598 8.10263C11.8017 8.61836 12.188 9.27571 12.3751 10" stroke="#F7F7F7" stroke-width="2" stroke-linecap="round" stroke-linejoin="round"/>
</svg>
